{
    "asset" : {
        "generator" : "Khronos glTF Blender I/O v1.3.48",
        "version" : "2.0"
    },
    "scene" : 0,
    "scenes" : [
        {
            "name" : "Scene",
            "nodes" : [
                0
            ]
        }
    ],
    "nodes" : [
        {
            "mesh" : 0,
            "name" : "Cylinder",
            "scale" : [
                0.07558372616767883,
                0.101786307990551,
                0.07558372616767883
            ],
            "translation" : [
                0,
                0.10374230146408081,
                0
            ]
        }
    ],
    "materials" : [
        {
            "doubleSided" : true,
            "emissiveFactor" : [
                0,
                0,
                0
            ],
            "name" : "Brown",
            "pbrMetallicRoughness" : {
                "baseColorFactor" : [
                    0.23301564157009125,
                    0.08498303592205048,
                    0,
                    1
                ],
                "metallicFactor" : 0,
                "roughnessFactor" : 0.5
            }
        },
        {
            "doubleSided" : true,
            "emissiveFactor" : [
                0,
                0,
                0
            ],
            "name" : "Green",
            "pbrMetallicRoughness" : {
                "baseColorFactor" : [
                    0.006369008682668209,
                    0.18446944653987885,
                    0,
                    1
                ],
                "metallicFactor" : 0,
                "roughnessFactor" : 0.5
            }
        }
    ],
    "meshes" : [
        {
            "name" : "Cylinder",
            "primitives" : [
                {
                    "attributes" : {
                        "POSITION" : 0,
                        "NORMAL" : 1,
                        "TEXCOORD_0" : 2
                    },
                    "indices" : 3,
                    "material" : 0
                },
                {
                    "attributes" : {
                        "POSITION" : 4,
                        "NORMAL" : 5,
                        "TEXCOORD_0" : 6
                    },
                    "indices" : 7,
                    "material" : 1
                }
            ]
        }
    ],
    "accessors" : [
        {
            "bufferView" : 0,
            "componentType" : 5126,
            "count" : 98,
            "max" : [
                1,
                2.9168758392333984,
                1
            ],
            "min" : [
                -1,
                -1,
                -1
            ],
            "type" : "VEC3"
        },
        {
            "bufferView" : 1,
            "componentType" : 5126,
            "count" : 98,
            "type" : "VEC3"
        },
        {
            "bufferView" : 2,
            "componentType" : 5126,
            "count" : 98,
            "type" : "VEC2"
        },
        {
            "bufferView" : 3,
            "componentType" : 5123,
            "count" : 282,
            "type" : "SCALAR"
        },
        {
            "bufferView" : 4,
            "componentType" : 5126,
            "count" : 656,
            "max" : [
                6.294859409332275,
                11.224581718444824,
                6.294861793518066
            ],
            "min" : [
                -6.29486083984375,
                2.916872024536133,
                -6.294858455657959
            ],
            "type" : "VEC3"
        },
        {
            "bufferView" : 5,
            "componentType" : 5126,
            "count" : 656,
            "type" : "VEC3"
        },
        {
            "bufferView" : 6,
            "componentType" : 5126,
            "count" : 656,
            "type" : "VEC2"
        },
        {
            "bufferView" : 7,
            "componentType" : 5123,
            "count" : 1896,
            "type" : "SCALAR"
        }
    ],
    "bufferViews" : [
        {
            "buffer" : 0,
            "byteLength" : 1176,
            "byteOffset" : 0
        },
        {
            "buffer" : 0,
            "byteLength" : 1176,
            "byteOffset" : 1176
        },
        {
            "buffer" : 0,
            "byteLength" : 784,
            "byteOffset" : 2352
        },
        {
            "buffer" : 0,
            "byteLength" : 564,
            "byteOffset" : 3136
        },
        {
            "buffer" : 0,
            "byteLength" : 7872,
            "byteOffset" : 3700
        },
        {
            "buffer" : 0,
            "byteLength" : 7872,
            "byteOffset" : 11572
        },
        {
            "buffer" : 0,
            "byteLength" : 5248,
            "byteOffset" : 19444
        },
        {
            "buffer" : 0,
            "byteLength" : 3792,
            "byteOffset" : 24692
        }
    ],
    "buffers" : [
        {
            "byteLength" : 28484,
            "uri" : "data:application/octet-stream;base64,"
        }
    ]
}
